<mxfile host="app.diagrams.net" agent="Mozilla/5.0 (X11; Ubuntu; Linux x86_64; rv:135.0) Gecko/20100101 Firefox/135.0" version="26.0.16">
  <diagram name="Page-1" id="-V3Dw8nhC4ex_Emg6fLs">
    <mxGraphModel dx="1364" dy="758" grid="1" gridSize="10" guides="1" tooltips="1" connect="1" arrows="1" fold="1" page="1" pageScale="1" pageWidth="850" pageHeight="1100" math="0" shadow="0">
      <root>
        <mxCell id="0" />
        <mxCell id="1" parent="0" />
        <mxCell id="dPqXsFxqPE8ASmYrfbmd-16" value="" style="rounded=0;whiteSpace=wrap;html=1;fillColor=#f8cecc;strokeColor=#b85450;dashed=1;" vertex="1" parent="1">
          <mxGeometry x="290" y="470" width="330" height="60" as="geometry" />
        </mxCell>
        <mxCell id="dPqXsFxqPE8ASmYrfbmd-10" value="" style="rounded=0;whiteSpace=wrap;html=1;dashed=1;fillColor=#fff2cc;strokeColor=#d6b656;" vertex="1" parent="1">
          <mxGeometry x="290" y="250" width="330" height="210" as="geometry" />
        </mxCell>
        <mxCell id="dPqXsFxqPE8ASmYrfbmd-1" value="" style="image;aspect=fixed;html=1;points=[];align=center;fontSize=12;image=img/lib/azure2/intune/Device_Configuration.svg;" vertex="1" parent="1">
          <mxGeometry x="120" y="280" width="182.35" height="200" as="geometry" />
        </mxCell>
        <mxCell id="dPqXsFxqPE8ASmYrfbmd-2" value="" style="sketch=0;outlineConnect=0;fontColor=#232F3E;gradientColor=none;fillColor=#7AA116;strokeColor=none;dashed=0;verticalLabelPosition=bottom;verticalAlign=top;align=center;html=1;fontSize=12;fontStyle=0;aspect=fixed;pointerEvents=1;shape=mxgraph.aws4.iot_thing_freertos_device;" vertex="1" parent="1">
          <mxGeometry x="630" y="280" width="190" height="190" as="geometry" />
        </mxCell>
        <mxCell id="dPqXsFxqPE8ASmYrfbmd-3" value="" style="endArrow=classic;html=1;rounded=0;entryX=1.02;entryY=0.12;entryDx=0;entryDy=0;entryPerimeter=0;" edge="1" parent="1" target="dPqXsFxqPE8ASmYrfbmd-1">
          <mxGeometry width="50" height="50" relative="1" as="geometry">
            <mxPoint x="610" y="304" as="sourcePoint" />
            <mxPoint x="410" y="370" as="targetPoint" />
          </mxGeometry>
        </mxCell>
        <mxCell id="dPqXsFxqPE8ASmYrfbmd-4" value="1. Send advertisement with possibility to connect" style="text;html=1;align=center;verticalAlign=middle;whiteSpace=wrap;rounded=0;" vertex="1" parent="1">
          <mxGeometry x="360" y="270" width="180" height="30" as="geometry" />
        </mxCell>
        <mxCell id="dPqXsFxqPE8ASmYrfbmd-5" value="" style="endArrow=classic;html=1;rounded=0;" edge="1" parent="1">
          <mxGeometry width="50" height="50" relative="1" as="geometry">
            <mxPoint x="305" y="379.5" as="sourcePoint" />
            <mxPoint x="605" y="379.5" as="targetPoint" />
          </mxGeometry>
        </mxCell>
        <mxCell id="dPqXsFxqPE8ASmYrfbmd-6" value="2. Scanning on the same advertisement channel, read the connection info, then send a connection request " style="text;html=1;align=center;verticalAlign=middle;whiteSpace=wrap;rounded=0;" vertex="1" parent="1">
          <mxGeometry x="305" y="340" width="290" height="30" as="geometry" />
        </mxCell>
        <mxCell id="dPqXsFxqPE8ASmYrfbmd-7" value="" style="endArrow=classic;html=1;rounded=0;entryX=1.02;entryY=0.12;entryDx=0;entryDy=0;entryPerimeter=0;" edge="1" parent="1">
          <mxGeometry width="50" height="50" relative="1" as="geometry">
            <mxPoint x="609" y="440" as="sourcePoint" />
            <mxPoint x="305" y="440" as="targetPoint" />
          </mxGeometry>
        </mxCell>
        <mxCell id="dPqXsFxqPE8ASmYrfbmd-8" value="3. Listen on the same advertising channel for a short period, accept the connection request to create a connection" style="text;html=1;align=center;verticalAlign=middle;whiteSpace=wrap;rounded=0;" vertex="1" parent="1">
          <mxGeometry x="330" y="400" width="280" height="30" as="geometry" />
        </mxCell>
        <mxCell id="dPqXsFxqPE8ASmYrfbmd-11" value="" style="endArrow=classic;html=1;rounded=0;exitX=0.5;exitY=0;exitDx=0;exitDy=0;fillColor=#d5e8d4;strokeColor=#82b366;dashed=1;" edge="1" parent="1" source="dPqXsFxqPE8ASmYrfbmd-10">
          <mxGeometry width="50" height="50" relative="1" as="geometry">
            <mxPoint x="360" y="450" as="sourcePoint" />
            <mxPoint x="500" y="180" as="targetPoint" />
          </mxGeometry>
        </mxCell>
        <mxCell id="dPqXsFxqPE8ASmYrfbmd-12" value="Steps to create a connection between a central and a peripheral device. " style="rounded=0;whiteSpace=wrap;html=1;fillColor=#d5e8d4;strokeColor=#82b366;dashed=1;" vertex="1" parent="1">
          <mxGeometry x="500" y="120" width="120" height="60" as="geometry" />
        </mxCell>
        <mxCell id="dPqXsFxqPE8ASmYrfbmd-14" value="" style="endArrow=classic;startArrow=classic;html=1;rounded=0;" edge="1" parent="1">
          <mxGeometry width="50" height="50" relative="1" as="geometry">
            <mxPoint x="310" y="480" as="sourcePoint" />
            <mxPoint x="610" y="480" as="targetPoint" />
          </mxGeometry>
        </mxCell>
        <mxCell id="dPqXsFxqPE8ASmYrfbmd-15" value="First packet exchange" style="text;html=1;align=center;verticalAlign=middle;whiteSpace=wrap;rounded=0;" vertex="1" parent="1">
          <mxGeometry x="400" y="490" width="110" height="30" as="geometry" />
        </mxCell>
        <mxCell id="dPqXsFxqPE8ASmYrfbmd-17" value="A connection is established when this happens!" style="rounded=0;whiteSpace=wrap;html=1;fillColor=#f8cecc;strokeColor=#b85450;dashed=1;" vertex="1" parent="1">
          <mxGeometry x="500" y="610" width="120" height="60" as="geometry" />
        </mxCell>
        <mxCell id="dPqXsFxqPE8ASmYrfbmd-18" value="" style="endArrow=classic;html=1;rounded=0;entryX=0;entryY=0;entryDx=0;entryDy=0;exitX=0.5;exitY=1;exitDx=0;exitDy=0;fillColor=#f8cecc;strokeColor=#b85450;dashed=1;" edge="1" parent="1" source="dPqXsFxqPE8ASmYrfbmd-16" target="dPqXsFxqPE8ASmYrfbmd-17">
          <mxGeometry width="50" height="50" relative="1" as="geometry">
            <mxPoint x="360" y="480" as="sourcePoint" />
            <mxPoint x="410" y="430" as="targetPoint" />
          </mxGeometry>
        </mxCell>
      </root>
    </mxGraphModel>
  </diagram>
</mxfile>
